<svg width="44" height="34" viewBox="0 0 44 34" fill="none" xmlns="http://www.w3.org/2000/svg">
<path d="M15.1409 26.9897H10.39C9.19887 26.9897 8.63043 26.719 8.91467 25.4602L10.796 17.163L7.79121 13.3054L2.36349 17.163L0.184311 26.5566C-0.736097 30.6578 1.82213 33.216 7.15508 33.216H13.6926L11.3375 30.0623L15.1409 26.9897Z" fill="#DD8044"/>
<path d="M25.455 17.1628L23.4517 25.5954C23.1675 26.8271 22.2335 26.9896 21.1236 26.9896H15.1274L11.324 30.0621L13.6791 33.2158H21.1236C26.4701 33.2158 30.0976 30.5629 31.0045 26.4752L33.2243 17.1628L28.6223 21.0204L25.455 17.1628Z" fill="#5F87B0"/>
<path d="M25.455 17.1629L28.6628 21.0069L33.2649 17.1629L35.5253 6.75415H27.7019L25.455 17.1629Z" fill="#181918"/>
<path d="M41.1018 0H14.7077C9.36121 0 5.5172 3.14022 4.61033 7.24146L2.3634 17.1494L7.79112 13.2918L10.7959 17.1494L13.1376 6.74064H27.7017H35.5252H39.64L43.9984 3.60043L41.1018 0Z" fill="#BD5A45"/>
</svg>
