<svg width="18" height="18" viewBox="0 0 18 18" fill="none" xmlns="http://www.w3.org/2000/svg">
<g clip-path="url(#clip0_90_1391)">
<path d="M17.9961 9.05477C17.9961 4.05274 13.9679 0 8.99609 0C4.02432 0 -0.00390625 4.05274 -0.00390625 9.05477C-0.00390625 13.5748 3.28763 17.3209 7.58803 18V11.6726H5.30174V9.05477H7.58803V7.06126C7.58803 4.79026 8.93077 3.53793 10.9884 3.53793C11.9719 3.53793 13.0025 3.71318 13.0025 3.71318V5.94037H11.8667C10.7489 5.94037 10.4005 6.63773 10.4005 7.35335V9.05477H12.8973L12.4981 11.6726H10.4005V18C14.7046 17.3209 17.9961 13.5748 17.9961 9.05477Z" fill="#6D6E71"/>
</g>
<defs>
<clipPath id="clip0_90_1391">
<rect width="18" height="18" fill="white" transform="translate(-0.00390625)"/>
</clipPath>
</defs>
</svg>
