<svg width="18" height="18" viewBox="0 0 18 18" fill="none" xmlns="http://www.w3.org/2000/svg">
<g clip-path="url(#clip0_90_1389)">
<path d="M9.00159 4.38674C6.44681 4.38674 4.38611 6.44744 4.38611 9.00222C4.38611 11.557 6.44681 13.6177 9.00159 13.6177C11.5564 13.6177 13.6171 11.557 13.6171 9.00222C13.6171 6.44744 11.5564 4.38674 9.00159 4.38674ZM9.00159 12.0029C7.35062 12.0029 6.00092 10.6572 6.00092 9.00222C6.00092 7.34724 7.3466 6.00155 9.00159 6.00155C10.6566 6.00155 12.0023 7.34724 12.0023 9.00222C12.0023 10.6572 10.6526 12.0029 9.00159 12.0029ZM14.8824 4.19794C14.8824 4.79647 14.4004 5.27449 13.8059 5.27449C13.2073 5.27449 12.7293 4.79245 12.7293 4.19794C12.7293 3.60343 13.2114 3.12139 13.8059 3.12139C14.4004 3.12139 14.8824 3.60343 14.8824 4.19794ZM17.9393 5.29055C17.871 3.84846 17.5416 2.57107 16.4852 1.51863C15.4327 0.466184 14.1553 0.136793 12.7133 0.0644878C11.227 -0.0198683 6.77218 -0.0198683 5.28591 0.0644878C3.84784 0.132776 2.57045 0.462167 1.51399 1.51461C0.457528 2.56705 0.132154 3.84445 0.0598491 5.28654C-0.024507 6.77281 -0.024507 11.2276 0.0598491 12.7139C0.128137 14.156 0.457528 15.4334 1.51399 16.4858C2.57045 17.5383 3.84382 17.8677 5.28591 17.94C6.77218 18.0243 11.227 18.0243 12.7133 17.94C14.1553 17.8717 15.4327 17.5423 16.4852 16.4858C17.5376 15.4334 17.867 14.156 17.9393 12.7139C18.0237 11.2276 18.0237 6.77683 17.9393 5.29055ZM16.0192 14.3086C15.7059 15.096 15.0993 15.7025 14.308 16.0199C13.123 16.4898 10.3111 16.3814 9.00159 16.3814C7.69206 16.3814 4.87618 16.4858 3.69519 16.0199C2.90787 15.7065 2.30131 15.1 1.98397 14.3086C1.51399 13.1236 1.62244 10.3118 1.62244 9.00222C1.62244 7.6927 1.518 4.87681 1.98397 3.69582C2.29729 2.9085 2.90385 2.30193 3.69519 1.98459C4.88019 1.51461 7.69206 1.62307 9.00159 1.62307C10.3111 1.62307 13.127 1.51863 14.308 1.98459C15.0953 2.29792 15.7019 2.90448 16.0192 3.69582C16.4892 4.88082 16.3807 7.6927 16.3807 9.00222C16.3807 10.3118 16.4892 13.1276 16.0192 14.3086Z" fill="#6D6E71"/>
</g>
<defs>
<clipPath id="clip0_90_1389">
<rect width="17.996" height="18" fill="white"/>
</clipPath>
</defs>
</svg>
