<svg width="20" height="20" viewBox="0 0 20 20" fill="none" xmlns="http://www.w3.org/2000/svg">
<path fill-rule="evenodd" clip-rule="evenodd" d="M1.66675 9.99996V9.99996C1.66675 14.6023 5.39771 18.3333 10.0001 18.3333C14.6025 18.3333 18.3334 14.6023 18.3334 9.99996C18.3334 5.39758 14.6025 1.66663 10.0001 1.66663C5.39771 1.66663 1.66675 5.39758 1.66675 9.99996L1.66675 9.99996ZM11.5501 6.92496L13.9334 9.42496C13.9687 9.46111 13.9969 9.5035 14.0167 9.54996C14.0521 9.58917 14.0803 9.6343 14.1001 9.68329C14.1892 9.88499 14.1892 10.1149 14.1001 10.3166C14.0604 10.4189 14.0009 10.5124 13.9251 10.5916L11.4251 13.0916C11.0983 13.4184 10.5685 13.4184 10.2417 13.0916C9.91498 12.7649 9.91498 12.2351 10.2417 11.9083L11.3251 10.8333H6.66675C6.20651 10.8333 5.83341 10.4602 5.83341 9.99996C5.83341 9.53972 6.20651 9.16663 6.66675 9.16663H11.3834L10.3417 8.07496C10.0242 7.74129 10.0372 7.21336 10.3709 6.89579C10.7046 6.57823 11.2325 6.59129 11.5501 6.92496Z" fill="white"/>
</svg>
