<svg width="212" height="34" viewBox="0 0 212 34" fill="none" xmlns="http://www.w3.org/2000/svg">
<path d="M208.346 28.8575C207.831 29.3719 207.222 29.6291 206.491 29.6291C205.76 29.6291 205.151 29.3719 204.637 28.8575C204.122 28.3432 203.865 27.7206 203.865 27.0032C203.865 26.2858 204.122 25.6632 204.637 25.1488C205.151 24.6345 205.76 24.3909 206.491 24.3909C207.222 24.3909 207.831 24.648 208.346 25.1488C208.86 25.6632 209.117 26.2723 209.117 27.0032C209.117 27.7206 208.86 28.3432 208.346 28.8575ZM204.907 25.406C204.474 25.8527 204.258 26.3806 204.258 27.0032C204.258 27.6258 204.474 28.1672 204.907 28.6139C205.341 29.0606 205.869 29.2772 206.491 29.2772C207.114 29.2772 207.642 29.0606 208.075 28.6139C208.508 28.1672 208.724 27.6394 208.724 27.0032C208.724 26.3806 208.508 25.8527 208.075 25.406C207.642 24.9594 207.114 24.7428 206.491 24.7428C205.869 24.7428 205.341 24.9729 204.907 25.406ZM207.371 28.262C207.154 28.438 206.884 28.5327 206.572 28.5327C206.18 28.5327 205.841 28.3974 205.571 28.1131C205.286 27.8289 205.151 27.4634 205.151 26.9897C205.151 26.5565 205.273 26.1911 205.53 25.8933C205.787 25.5955 206.112 25.4602 206.518 25.4602C206.775 25.4602 207.005 25.5143 207.208 25.6091C207.56 25.7986 207.75 26.0963 207.791 26.5159H207.357C207.33 26.34 207.263 26.1775 207.127 26.0557C207.005 25.9204 206.816 25.8662 206.572 25.8662C206.234 25.8662 205.977 26.0151 205.828 26.3264C205.733 26.5295 205.679 26.7325 205.679 26.9626C205.679 27.2875 205.76 27.5582 205.923 27.7883C206.085 28.0048 206.315 28.1266 206.613 28.1266C206.802 28.1266 206.965 28.0725 207.1 27.9778C207.236 27.8695 207.317 27.7206 207.371 27.5311H207.804C207.723 27.8289 207.587 28.086 207.371 28.262Z" fill="black"/>
<path d="M15.1409 26.9897H10.39C9.19887 26.9897 8.63043 26.719 8.91467 25.4602L10.796 17.163L7.79121 13.3054L2.36349 17.163L0.184311 26.5566C-0.736097 30.6578 1.82213 33.216 7.15508 33.216H13.6926L11.3375 30.0623L15.1409 26.9897Z" fill="#DD8044"/>
<path d="M25.455 17.1628L23.4517 25.5954C23.1675 26.8271 22.2335 26.9896 21.1236 26.9896H15.1274L11.324 30.0621L13.6791 33.2158H21.1236C26.4701 33.2158 30.0976 30.5629 31.0045 26.4752L33.2243 17.1628L28.6223 21.0204L25.455 17.1628Z" fill="#5F87B0"/>
<path d="M25.455 17.1629L28.6628 21.0069L33.2649 17.1629L35.5253 6.75415H27.7019L25.455 17.1629Z" fill="#181918"/>
<path d="M41.1018 0H14.7077C9.36121 0 5.5172 3.14022 4.61033 7.24146L2.3634 17.1494L7.79112 13.2918L10.7959 17.1494L13.1376 6.74064H27.7017H35.5252H39.64L43.9984 3.60043L41.1018 0Z" fill="#BD5A45"/>
<path d="M52.7286 14.334C52.8098 13.9821 52.6203 13.7926 52.2007 13.7926H46.6782C46.2586 13.7926 46.0015 13.9821 45.9203 14.334L45.4195 16.6757C45.2976 17.2712 45.5143 17.4336 46.3128 17.5961L52.0518 18.6924C54.7589 19.2068 56.3561 20.1678 55.8417 22.6177L55.1109 26.0557C54.583 28.5327 52.7286 29.8727 49.8049 29.8727H42.4282C39.5045 29.8727 38.2186 28.5327 38.7465 26.0557L39.2744 23.6058H43.7682L43.3079 25.785C43.2267 26.1369 43.4162 26.3264 43.8358 26.3264H49.8049C50.2245 26.3264 50.4817 26.1369 50.5629 25.785L51.1044 23.2268C51.2262 22.6312 51.0096 22.4688 50.2111 22.3064L44.472 21.21C41.7649 20.6957 40.1677 19.7347 40.6821 17.2848L41.3724 14.0633C41.9003 11.5863 43.7546 10.2463 46.6782 10.2463H53.6084C56.532 10.2463 57.8179 11.5863 57.29 14.0633L56.8163 16.2967H52.3226L52.7286 14.334Z" fill="#BD5A45"/>
<path d="M62.88 10.2466H67.4955L63.3267 29.8729H58.7111L62.88 10.2466Z" fill="#BD5A45"/>
<path d="M83.2235 14.3884C83.3047 14.0365 83.1153 13.847 82.6957 13.847H76.51C76.0904 13.847 75.8332 14.0365 75.752 14.3884L73.3427 25.7311C73.2615 26.083 73.451 26.2725 73.8706 26.2725H80.0563C80.4759 26.2725 80.733 26.083 80.8143 25.7311L81.5316 22.3472H77.295L78.026 18.9092H86.8781L85.3621 26.0559C84.8343 28.5329 82.9799 29.8729 80.0563 29.8729H72.3275C69.4039 29.8729 68.118 28.5329 68.6459 26.0559L71.1906 14.0636C71.7185 11.5866 73.5728 10.2466 76.4965 10.2466H84.2251C87.1488 10.2466 88.4347 11.5866 87.9068 14.0636L87.3789 16.5676H82.7634L83.2235 14.3884Z" fill="#BD5A45"/>
<path d="M111.053 29.8729H106.559L109.266 17.109L102.241 27.0576H98.8438L96.0555 17.109L93.3484 29.8729H88.99L93.1589 10.2466H98.2212L101.74 21.7517L110.146 10.2466H115.208L111.053 29.8729Z" fill="#BD5A45"/>
<path d="M120.081 25.4604L117.698 29.8729H112.826L124.344 10.2466H129.921L133.088 29.8729H128.026L127.525 25.4604H120.081ZM126.199 14.1719L122.03 21.86H127.092L126.199 14.1719Z" fill="#BD5A45"/>
<path d="M145.907 13.7929L142.482 29.8729H137.867L141.291 13.7929H135.254L136.012 10.2466H152.688L151.93 13.7929H145.907Z" fill="#181918"/>
<path d="M171.136 10.2466L170.365 13.847H159.875L158.981 18.0701H167.482L166.724 21.6163H158.224L157.235 26.2725H167.725L166.954 29.8729H151.848L156.017 10.2466H171.136Z" fill="#181918"/>
<path d="M185.619 14.3884C185.7 14.0365 185.511 13.847 185.091 13.847H178.905C178.486 13.847 178.228 14.0365 178.147 14.3884L175.738 25.7311C175.657 26.083 175.846 26.2725 176.266 26.2725H182.452C182.871 26.2725 183.128 26.083 183.21 25.7311L183.927 22.3472H179.69L180.421 18.9092H189.273L187.757 26.0559C187.23 28.5329 185.375 29.8729 182.452 29.8729H174.723C171.799 29.8729 170.513 28.5329 171.041 26.0559L173.586 14.0636C174.114 11.5866 175.968 10.2466 178.892 10.2466H186.62C189.544 10.2466 190.83 11.5866 190.302 14.0636L189.774 16.5676H185.159L185.619 14.3884Z" fill="#181918"/>
<path d="M195.893 29.8728L197.341 23.078L192.753 10.2329H197.761L200.549 19.0174L207.06 10.2329H212L201.957 23.078L200.508 29.8728H195.893Z" fill="#181918"/>
</svg>
