<svg width="146" height="146" viewBox="0 0 146 146" fill="none" xmlns="http://www.w3.org/2000/svg">
<g clip-path="url(#clip0_90_685)">
<path d="M133.97 69.3519C130.717 63.8 126.076 59.1897 120.503 55.9739C116.248 53.501 111.848 51.9304 106.88 51.2509V33.4618C109.289 32.4635 111.343 30.7653 112.777 28.5868C114.211 26.4084 114.958 23.8499 114.922 21.2422C114.931 19.4813 114.592 17.7359 113.924 16.1064C113.256 14.4769 112.273 12.9955 111.031 11.7472C109.788 10.4989 108.312 9.50827 106.686 8.83235C105.06 8.15642 103.316 7.80848 101.555 7.8085C97.9881 7.80848 94.5666 9.22239 92.0402 11.7404C89.5138 14.2585 88.0886 17.6753 88.0768 21.2422C88.0768 26.7004 90.9729 31.3565 95.9521 33.4618V51.1507C91.8276 51.7475 87.8258 53.0037 84.1001 54.8711L36.4805 18.8139C36.8147 17.5552 37.1043 16.2519 37.1043 14.8818C37.1043 6.66117 30.4431 0 22.2225 0C14.0018 0 7.35181 6.66117 7.35181 14.8818C7.35181 23.1025 14.013 29.7636 22.2336 29.7636C25.0407 29.7636 27.6361 28.9393 29.875 27.5915L32.994 29.953L75.7124 60.7526C73.4511 62.8244 71.3459 65.1859 69.6639 67.837C66.2553 73.2395 64.1723 79.1766 64.1723 85.6596V86.9963C64.1874 91.3928 64.9793 95.7521 66.5115 99.873C67.8036 103.393 69.6973 106.601 72.0476 109.497L57.8564 123.722C53.657 122.162 48.9452 123.198 45.7705 126.373C43.6095 128.523 42.3954 131.452 42.4065 134.504C42.4176 137.557 43.6095 140.464 45.7817 142.636C47.9538 144.808 50.8611 146.011 53.9132 146.011C56.9653 146.011 59.8949 144.808 62.0447 142.636C64.1946 140.464 65.4199 137.557 65.4087 134.504C65.4079 133.333 65.2275 132.168 64.874 131.051L79.5331 116.392C81.5381 117.785 83.7102 118.954 86.0494 119.957C90.8572 122.065 96.049 123.158 101.299 123.165H102.301C108.45 123.165 114.254 121.717 119.701 118.765C125.3 115.763 130.004 111.331 133.335 105.922C136.755 100.463 138.626 94.4149 138.626 87.7649V87.4307C138.626 80.892 137.111 74.8658 133.948 69.3408L133.97 69.3519ZM116.069 100.118C112.093 104.54 107.514 107.269 102.346 107.269H101.366C98.4138 107.269 95.5177 106.456 92.6995 104.964C89.6094 103.357 86.9911 100.973 85.1026 98.0462C83.053 95.1501 81.9391 91.9866 81.9391 88.6337V87.6312C81.9391 84.334 82.5741 81.2039 84.1669 78.2521C85.8712 74.9103 88.177 72.5154 91.2403 70.5216C94.3035 68.5277 97.4559 67.5697 101.043 67.5697H101.377C104.607 67.5697 107.693 68.2046 110.589 69.6861C113.523 71.2292 116.015 73.495 117.829 76.2693C119.626 79.0515 120.736 82.22 121.071 85.5148L121.149 87.5978C121.149 92.1314 119.411 96.3308 115.947 100.14L116.069 100.118Z" fill="#BCBEC0"/>
</g>
<defs>
<clipPath id="clip0_90_685">
<rect width="146" height="146" fill="white"/>
</clipPath>
</defs>
</svg>
