<svg width="35" height="24" viewBox="0 0 35 24" fill="none" xmlns="http://www.w3.org/2000/svg">
<path d="M14.5651 17.3122C14.395 18.2152 14.1229 19.0758 13.7487 19.8942C13.3746 20.6843 12.9154 21.3898 12.3712 22.0106C11.827 22.6314 11.2317 23.1252 10.5855 23.4921C9.97321 23.8307 9.34396 24 8.6977 24C7.47321 24 6.21471 23.8448 4.92219 23.5344C3.66369 23.224 2.6773 22.7019 1.96301 21.9683C1.75893 21.7143 1.55485 21.418 1.35077 21.0794C1.14668 20.7407 0.993622 20.3316 0.891582 19.8519C0.789541 19.3721 0.721514 18.7936 0.6875 18.1164C0.6875 17.4392 0.772534 16.649 0.942602 15.746C1.14668 14.448 1.46981 13.1922 1.91199 11.9788C2.35417 10.7654 3.03444 9.52381 3.95281 8.25397C4.90519 6.98413 6.14668 5.68607 7.6773 4.35979C9.24192 3.00529 11.2317 1.55203 13.6467 0L16.2997 3.08995C13.3065 4.95238 11.1637 6.60317 9.87117 8.04233C8.61267 9.45326 7.89838 10.6949 7.72832 11.7672C7.66029 12.2751 7.84736 12.6702 8.28954 12.9524C8.73172 13.2346 9.30995 13.4603 10.0242 13.6296C11.5208 13.94 12.6773 14.4339 13.4936 15.1111C14.344 15.7601 14.7011 16.4938 14.5651 17.3122ZM32.4222 17.3122C32.2521 18.2152 31.98 19.0758 31.6059 19.8942C31.2317 20.6843 30.7725 21.3898 30.2283 22.0106C29.6841 22.6314 29.0889 23.1252 28.4426 23.4921C27.8304 23.8307 27.2011 24 26.5548 24C25.3304 24 24.0719 23.8448 22.7793 23.5344C21.5208 23.224 20.5344 22.7019 19.8202 21.9683C19.6161 21.7143 19.412 21.418 19.2079 21.0794C19.0038 20.7407 18.8508 20.3316 18.7487 19.8519C18.6467 19.3721 18.5787 18.7936 18.5446 18.1164C18.5446 17.4392 18.6297 16.649 18.7997 15.746C19.0038 14.448 19.327 13.1922 19.7691 11.9788C20.2113 10.7654 20.8916 9.52381 21.8099 8.25397C22.7623 6.98413 24.0038 5.68607 25.5344 4.35979C27.0991 3.00529 29.0889 1.55203 31.5038 0L34.1569 3.08995C31.1637 4.95238 29.0208 6.60317 27.7283 8.04233C26.4698 9.45326 25.7555 10.6949 25.5855 11.7672C25.5174 12.2751 25.7045 12.6702 26.1467 12.9524C26.5889 13.2346 27.1671 13.4603 27.8814 13.6296C29.378 13.94 30.5344 14.4339 31.3508 15.1111C32.2011 15.7601 32.5582 16.4938 32.4222 17.3122Z" fill="#6D6E71"/>
</svg>
