<svg width="20" height="20" viewBox="0 0 20 20" fill="none" xmlns="http://www.w3.org/2000/svg">
<path d="M19.728 17.2942L15.8332 13.3994C15.7459 13.3124 15.6423 13.2435 15.5283 13.1965C15.4144 13.1496 15.2923 13.1256 15.169 13.1259H14.5323C15.6494 11.6989 16.2547 9.93788 16.2512 8.12558C16.2512 3.63698 12.6142 0 8.12558 0C3.63698 0 0 3.63698 0 8.12558C0 12.6142 3.63698 16.2512 8.12558 16.2512C9.93788 16.2547 11.6989 15.6494 13.1259 14.5323V15.169C13.1256 15.2923 13.1496 15.4144 13.1966 15.5283C13.2435 15.6423 13.3124 15.7459 13.3994 15.8332L17.2942 19.728C17.381 19.8153 17.4841 19.8845 17.5978 19.9318C17.7114 19.9791 17.8333 20.0034 17.9564 20.0034C18.0794 20.0034 18.2013 19.9791 18.3149 19.9318C18.4286 19.8845 18.5317 19.8153 18.6185 19.728L19.7241 18.6224C19.9001 18.4465 19.9993 18.208 20 17.9591C20.0007 17.7102 19.9029 17.4712 19.728 17.2942ZM8.12558 13.1259C7.1366 13.1259 6.16983 12.8327 5.34753 12.2832C4.52522 11.7338 3.88432 10.9528 3.50585 10.0391C3.12739 9.12543 3.02836 8.12003 3.2213 7.15006C3.41424 6.18008 3.89048 5.2891 4.58979 4.58979C5.2891 3.89048 6.18008 3.41424 7.15006 3.2213C8.12003 3.02836 9.12544 3.12739 10.0391 3.50585C10.9528 3.88432 11.7338 4.52522 12.2832 5.34753C12.8327 6.16983 13.1259 7.1366 13.1259 8.12558C13.1263 8.78233 12.9972 9.43272 12.746 10.0396C12.4949 10.6464 12.1266 11.1978 11.6622 11.6622C11.1978 12.1266 10.6464 12.4949 10.0396 12.746C9.43272 12.9972 8.78234 13.1263 8.12558 13.1259Z" fill="#2185B2"/>
</svg>
