<svg width="22" height="18" viewBox="0 0 22 18" fill="none" xmlns="http://www.w3.org/2000/svg">
<g clip-path="url(#clip0_90_1393)">
<path d="M19.7359 4.48485C19.7488 4.67965 19.7488 4.87879 19.7488 5.07359C19.7488 11.0779 15.2113 18 6.91836 18C4.36172 18 1.98984 17.2554 -0.00390625 15.961C0.357031 16.0043 0.709375 16.0173 1.0832 16.0173C3.19297 16.0173 5.13086 15.2987 6.68203 14.0779C4.70117 14.0346 3.03828 12.7273 2.4668 10.9264C2.74609 10.9697 3.02539 10.9957 3.31758 10.9957C3.72148 10.9957 4.12539 10.9394 4.50352 10.8398C2.43672 10.4199 0.889844 8.58875 0.889844 6.38095V6.32468C1.49141 6.66234 2.1875 6.87446 2.92656 6.90043C1.71055 6.08658 0.915625 4.69264 0.915625 3.11688C0.915625 2.27273 1.13906 1.49784 1.53008 0.822511C3.75156 3.58442 7.08594 5.38528 10.8285 5.58442C10.7598 5.24675 10.7168 4.8961 10.7168 4.54545C10.7168 2.03896 12.7277 0 15.2242 0C16.5219 0 17.6949 0.549784 18.5199 1.4329C19.5383 1.2381 20.518 0.857143 21.3816 0.337662C21.0465 1.39394 20.3332 2.27706 19.4008 2.83983C20.3074 2.74026 21.1883 2.48918 21.9961 2.13853C21.3816 3.03896 20.6125 3.83983 19.7359 4.48485Z" fill="#6D6E71"/>
</g>
<defs>
<clipPath id="clip0_90_1393">
<rect width="22" height="18" fill="white" transform="translate(-0.00390625)"/>
</clipPath>
</defs>
</svg>
