<svg width="53" height="60" viewBox="0 0 53 60" fill="none" xmlns="http://www.w3.org/2000/svg">
<path d="M0 19.6642L5.62006 3.04113L21.7401 0L52.77 40.1724L31.04 59.8366L0 19.6642ZM15.19 9.82673C14.01 8.30079 11.91 8.09512 10.5 9.37215C9.09 10.6492 8.90002 12.9218 10.08 14.4477C11.26 15.9737 13.36 16.1794 14.77 14.9023C16.18 13.6253 16.37 11.3527 15.19 9.82673Z" fill="#2F67D6"/>
<path d="M14.9 14.7833C16.2 13.4955 16.35 11.2986 15.2 9.82674C14.06 8.34408 12.04 8.1168 10.64 9.27479L5.80005 3.00863L21.7401 0L52.77 40.1724L42.03 49.8908L14.9 14.7833Z" fill="#2185B2"/>
<path d="M15.18 22.8568C15.31 23.5927 15.7999 24.6317 16.3199 25.3135C17.1999 26.4498 18.19 26.5256 18.95 25.8437C19.79 25.0862 19.77 24.1555 19.59 22.5322C19.23 19.9564 19.95 18.2032 20.99 17.2617C22.84 15.5842 25.41 15.53 27.42 18.1274C28.07 18.9607 28.46 19.9348 28.53 20.4651L26.29 21.8287C26.22 21.2876 26 20.5841 25.47 19.8914C24.67 18.8525 23.7 18.8742 23.08 19.437C22.39 20.0539 22.32 20.7573 22.6 22.7811C22.96 25.281 22.26 26.9368 21.04 28.0299C18.94 29.9346 16.24 29.5017 14.37 27.0775C13.6 26.0819 13.09 24.8914 12.98 24.2637L15.18 22.8568Z" fill="#87B0FF"/>
<path d="M27.89 33.203L25.7 30.3676L22.58 33.1922L25.05 36.4064L23.1 38.1704L18.74 32.532L30.29 22.0776L34.49 27.5105L32.54 29.2745L30.22 26.2767L27.56 28.6792L29.7499 31.5147L27.89 33.203Z" fill="#87B0FF"/>
<path d="M36.0701 41.8066C31.7201 45.7459 28.6601 45.6702 26.8301 43.2893C24.6401 40.4538 26.5501 36.8284 29.7301 33.9604C32.8801 31.1033 36.6502 29.9995 38.8102 32.7808C41.1302 35.7786 38.7101 39.4149 36.0701 41.8066ZM31.6401 36.5145C29.0201 38.8846 28.0901 40.6379 28.8501 41.6119C29.6501 42.6508 31.6701 41.4928 34.0201 39.3608C36.0401 37.5318 37.6201 35.5406 36.7601 34.4259C36.0101 33.4735 34.1301 34.2634 31.6401 36.5145Z" fill="#87B0FF"/>
<path d="M25.46 19.8914C25.99 20.5732 26.22 21.2875 26.28 21.8286L28.52 20.465C28.45 19.9239 28.06 18.9606 27.41 18.1273C25.4 15.53 22.83 15.595 20.98 17.2616C20.19 17.9759 19.59 19.1339 19.5 20.7572L22.63 24.8047C22.7 24.1986 22.7 23.5277 22.59 22.7701C22.31 20.7464 22.38 20.0538 23.07 19.4261C23.69 18.8741 24.66 18.8524 25.46 19.8914Z" fill="#E3FAFD"/>
<path d="M29.75 31.5146L27.5601 28.6791L30.22 26.2657L32.54 29.2744L34.4901 27.4995L30.3 22.0667L24.54 27.2831L28.61 32.5428L29.75 31.5146Z" fill="#E3FAFD"/>
<path d="M29.7302 33.9603C29.7202 33.9711 29.7202 33.9711 29.7302 33.9603L31.6702 36.4928C34.1502 34.2526 36.0301 33.4734 36.7701 34.4366C37.6301 35.5513 36.0602 37.5425 34.0301 39.3715C34.0001 39.3931 33.9801 39.4148 33.9501 39.4365L35.8901 41.958C35.9601 41.9039 36.0101 41.8498 36.0701 41.7956C38.7101 39.4039 41.1302 35.7785 38.8002 32.7699C36.6502 29.9994 32.8802 31.1032 29.7302 33.9603Z" fill="#E3FAFD"/>
</svg>
