<svg width="43" height="42" viewBox="0 0 43 42" fill="none" xmlns="http://www.w3.org/2000/svg">
<path d="M42.6621 21.0015C42.6621 32.5912 33.1213 42.0029 21.3311 42.0029C9.56666 42.0029 0 32.5912 0 21.0015C0 9.38584 9.5408 0 21.3311 0C33.0955 0 42.6621 9.38584 42.6621 21.0015Z" fill="#F68621"/>
<path d="M30.9755 16.5937C29.7086 15.7381 25.1839 16.49 25.1839 16.49C25.9078 16.0751 27.1231 13.3787 27.2006 12.6008C27.3558 11.0452 26.8903 8.58203 25.7268 8.58203C24.5633 8.58203 24.2272 10.6822 24.1496 11.2267C23.9169 13.0416 22.2622 14.675 21.1504 15.2973C19.5732 16.1529 18.5131 16.9048 16.4963 17.4234C16.4963 17.4752 16.5222 17.5271 16.5222 17.553V27.3018C17.6081 27.3018 18.6941 27.5093 19.7542 28.1056C21.8743 29.2983 23.4515 30.128 26.0112 30.128C29.7862 30.128 29.3725 27.2759 27.9246 27.1722C30.9497 27.2759 31.26 24.7869 29.3725 23.8535C32.2166 23.8535 31.8029 20.3014 29.8896 20.0939C32.0873 20.2236 32.2425 17.4493 30.9755 16.5937Z" fill="white"/>
<path d="M13.9365 16.542H9.0498V28.3132H13.9365V16.542Z" fill="white"/>
</svg>
