<svg width="422" height="146" viewBox="0 0 422 146" fill="none" xmlns="http://www.w3.org/2000/svg">
<path d="M4.35411 7.1348C6.32433 7.1348 7.92142 5.53762 7.92142 3.5674C7.92142 1.59718 6.32433 0 4.35411 0C2.38389 0 0.786621 1.59718 0.786621 3.5674C0.786621 5.53762 2.38389 7.1348 4.35411 7.1348Z" fill="#CDCFD0"/>
<path d="M55.9946 7.1348C57.9648 7.1348 59.562 5.53762 59.562 3.5674C59.562 1.59718 57.9648 0 55.9946 0C54.0243 0 52.4272 1.59718 52.4272 3.5674C52.4272 5.53762 54.0243 7.1348 55.9946 7.1348Z" fill="#2185B2"/>
<path d="M107.634 7.1348C109.604 7.1348 111.201 5.53762 111.201 3.5674C111.201 1.59718 109.604 0 107.634 0C105.663 0 104.066 1.59718 104.066 3.5674C104.066 5.53762 105.663 7.1348 107.634 7.1348Z" fill="#2185B2"/>
<path d="M159.275 7.1348C161.245 7.1348 162.842 5.53762 162.842 3.5674C162.842 1.59718 161.245 0 159.275 0C157.304 0 155.707 1.59718 155.707 3.5674C155.707 5.53762 157.304 7.1348 159.275 7.1348Z" fill="#CDCFD0"/>
<path d="M210.911 7.1348C212.882 7.1348 214.479 5.53762 214.479 3.5674C214.479 1.59718 212.882 0 210.911 0C208.941 0 207.344 1.59718 207.344 3.5674C207.344 5.53762 208.941 7.1348 210.911 7.1348Z" fill="#2185B2"/>
<path d="M262.58 7.1348C264.55 7.1348 266.147 5.53762 266.147 3.5674C266.147 1.59718 264.55 0 262.58 0C260.609 0 259.012 1.59718 259.012 3.5674C259.012 5.53762 260.609 7.1348 262.58 7.1348Z" fill="#2185B2"/>
<path d="M317.787 3.5674C317.787 5.52654 316.178 7.1348 314.219 7.1348C312.26 7.1348 310.652 5.52654 310.652 3.5674C310.652 1.60826 312.26 0 314.219 0C316.178 0 317.787 1.60826 317.787 3.5674Z" fill="#2185B2"/>
<path d="M365.859 7.1348C367.829 7.1348 369.426 5.53762 369.426 3.5674C369.426 1.59718 367.829 0 365.859 0C363.889 0 362.292 1.59718 362.292 3.5674C362.292 5.53762 363.889 7.1348 365.859 7.1348Z" fill="#2185B2"/>
<path d="M417.5 7.1348C419.47 7.1348 421.067 5.53762 421.067 3.5674C421.067 1.59718 419.47 0 417.5 0C415.529 0 413.932 1.59718 413.932 3.5674C413.932 5.53762 415.529 7.1348 417.5 7.1348Z" fill="#2185B2"/>
<path d="M4.35411 41.844C6.32433 41.844 7.92142 40.2468 7.92142 38.2766C7.92142 36.3064 6.32433 34.7092 4.35411 34.7092C2.38389 34.7092 0.786621 36.3064 0.786621 38.2766C0.786621 40.2468 2.38389 41.844 4.35411 41.844Z" fill="#2185B2"/>
<path d="M55.9946 41.844C57.9648 41.844 59.562 40.2468 59.562 38.2766C59.562 36.3064 57.9648 34.7092 55.9946 34.7092C54.0243 34.7092 52.4272 36.3064 52.4272 38.2766C52.4272 40.2468 54.0243 41.844 55.9946 41.844Z" fill="#2185B2"/>
<path d="M107.634 41.844C109.604 41.844 111.201 40.2468 111.201 38.2766C111.201 36.3064 109.604 34.7092 107.634 34.7092C105.663 34.7092 104.066 36.3064 104.066 38.2766C104.066 40.2468 105.663 41.844 107.634 41.844Z" fill="#2185B2"/>
<path d="M159.275 41.844C161.245 41.844 162.842 40.2468 162.842 38.2766C162.842 36.3064 161.245 34.7092 159.275 34.7092C157.304 34.7092 155.707 36.3064 155.707 38.2766C155.707 40.2468 157.304 41.844 159.275 41.844Z" fill="#2185B2"/>
<path d="M210.911 41.844C212.882 41.844 214.479 40.2468 214.479 38.2766C214.479 36.3064 212.882 34.7092 210.911 34.7092C208.941 34.7092 207.344 36.3064 207.344 38.2766C207.344 40.2468 208.941 41.844 210.911 41.844Z" fill="#2185B2"/>
<path d="M262.58 41.844C264.55 41.844 266.147 40.2468 266.147 38.2766C266.147 36.3064 264.55 34.7092 262.58 34.7092C260.609 34.7092 259.012 36.3064 259.012 38.2766C259.012 40.2468 260.609 41.844 262.58 41.844Z" fill="#CDCFD0"/>
<path d="M317.787 38.2766C317.787 40.2358 316.178 41.844 314.219 41.844C312.26 41.844 310.652 40.2358 310.652 38.2766C310.652 36.3175 312.26 34.7092 314.219 34.7092C316.178 34.7092 317.787 36.3175 317.787 38.2766Z" fill="#2185B2"/>
<path d="M365.859 41.844C367.829 41.844 369.426 40.2468 369.426 38.2766C369.426 36.3064 367.829 34.7092 365.859 34.7092C363.889 34.7092 362.292 36.3064 362.292 38.2766C362.292 40.2468 363.889 41.844 365.859 41.844Z" fill="#2185B2"/>
<path d="M417.5 41.844C419.47 41.844 421.067 40.2468 421.067 38.2766C421.067 36.3064 419.47 34.7092 417.5 34.7092C415.529 34.7092 413.932 36.3064 413.932 38.2766C413.932 40.2468 415.529 41.844 417.5 41.844Z" fill="#CDCFD0"/>
<path d="M4.35411 76.5528C6.32433 76.5528 7.92142 74.9556 7.92142 72.9854C7.92142 71.0151 6.32433 69.418 4.35411 69.418C2.38389 69.418 0.786621 71.0151 0.786621 72.9854C0.786621 74.9556 2.38389 76.5528 4.35411 76.5528Z" fill="#2185B2"/>
<path d="M55.9946 76.5528C57.9648 76.5528 59.562 74.9556 59.562 72.9854C59.562 71.0151 57.9648 69.418 55.9946 69.418C54.0243 69.418 52.4272 71.0151 52.4272 72.9854C52.4272 74.9556 54.0243 76.5528 55.9946 76.5528Z" fill="#CDCFD0"/>
<path d="M107.634 76.5528C109.604 76.5528 111.201 74.9556 111.201 72.9854C111.201 71.0151 109.604 69.418 107.634 69.418C105.663 69.418 104.066 71.0151 104.066 72.9854C104.066 74.9556 105.663 76.5528 107.634 76.5528Z" fill="#2185B2"/>
<path d="M159.275 76.5528C161.245 76.5528 162.842 74.9556 162.842 72.9854C162.842 71.0151 161.245 69.418 159.275 69.418C157.304 69.418 155.707 71.0151 155.707 72.9854C155.707 74.9556 157.304 76.5528 159.275 76.5528Z" fill="#2185B2"/>
<path d="M210.911 76.5528C212.882 76.5528 214.479 74.9556 214.479 72.9854C214.479 71.0151 212.882 69.418 210.911 69.418C208.941 69.418 207.344 71.0151 207.344 72.9854C207.344 74.9556 208.941 76.5528 210.911 76.5528Z" fill="#2185B2"/>
<path d="M262.58 76.5528C264.55 76.5528 266.147 74.9556 266.147 72.9854C266.147 71.0151 264.55 69.418 262.58 69.418C260.609 69.418 259.012 71.0151 259.012 72.9854C259.012 74.9556 260.609 76.5528 262.58 76.5528Z" fill="#2185B2"/>
<path d="M317.787 72.9854C317.787 74.9445 316.178 76.5528 314.219 76.5528C312.26 76.5528 310.652 74.9445 310.652 72.9854C310.652 71.0262 312.26 69.418 314.219 69.418C316.178 69.418 317.787 71.0262 317.787 72.9854Z" fill="#CDCFD0"/>
<path d="M365.859 76.5528C367.829 76.5528 369.426 74.9556 369.426 72.9854C369.426 71.0151 367.829 69.418 365.859 69.418C363.889 69.418 362.292 71.0151 362.292 72.9854C362.292 74.9556 363.889 76.5528 365.859 76.5528Z" fill="#2185B2"/>
<path d="M417.5 76.5528C419.47 76.5528 421.067 74.9556 421.067 72.9854C421.067 71.0151 419.47 69.418 417.5 69.418C415.529 69.418 413.932 71.0151 413.932 72.9854C413.932 74.9556 415.529 76.5528 417.5 76.5528Z" fill="#2185B2"/>
<path d="M4.35411 111.262C6.32433 111.262 7.92142 109.665 7.92142 107.694C7.92142 105.724 6.32433 104.127 4.35411 104.127C2.38389 104.127 0.786621 105.724 0.786621 107.694C0.786621 109.665 2.38389 111.262 4.35411 111.262Z" fill="#2185B2"/>
<path d="M55.9946 111.262C57.9648 111.262 59.562 109.665 59.562 107.694C59.562 105.724 57.9648 104.127 55.9946 104.127C54.0243 104.127 52.4272 105.724 52.4272 107.694C52.4272 109.665 54.0243 111.262 55.9946 111.262Z" fill="#2185B2"/>
<path d="M107.634 111.262C109.604 111.262 111.201 109.665 111.201 107.694C111.201 105.724 109.604 104.127 107.634 104.127C105.663 104.127 104.066 105.724 104.066 107.694C104.066 109.665 105.663 111.262 107.634 111.262Z" fill="#CDCFD0"/>
<path d="M159.275 111.262C161.245 111.262 162.842 109.665 162.842 107.694C162.842 105.724 161.245 104.127 159.275 104.127C157.304 104.127 155.707 105.724 155.707 107.694C155.707 109.665 157.304 111.262 159.275 111.262Z" fill="#2185B2"/>
<path d="M210.911 111.262C212.882 111.262 214.479 109.665 214.479 107.694C214.479 105.724 212.882 104.127 210.911 104.127C208.941 104.127 207.344 105.724 207.344 107.694C207.344 109.665 208.941 111.262 210.911 111.262Z" fill="#CDCFD0"/>
<path d="M262.58 111.262C264.55 111.262 266.147 109.665 266.147 107.694C266.147 105.724 264.55 104.127 262.58 104.127C260.609 104.127 259.012 105.724 259.012 107.694C259.012 109.665 260.609 111.262 262.58 111.262Z" fill="#2185B2"/>
<path d="M317.787 107.694C317.787 109.653 316.178 111.262 314.219 111.262C312.26 111.262 310.652 109.653 310.652 107.694C310.652 105.735 312.26 104.127 314.219 104.127C316.178 104.127 317.787 105.735 317.787 107.694Z" fill="#2185B2"/>
<path d="M365.859 111.262C367.829 111.262 369.426 109.665 369.426 107.694C369.426 105.724 367.829 104.127 365.859 104.127C363.889 104.127 362.292 105.724 362.292 107.694C362.292 109.665 363.889 111.262 365.859 111.262Z" fill="#2185B2"/>
<path d="M417.5 111.262C419.47 111.262 421.067 109.665 421.067 107.694C421.067 105.724 419.47 104.127 417.5 104.127C415.529 104.127 413.932 105.724 413.932 107.694C413.932 109.665 415.529 111.262 417.5 111.262Z" fill="#2185B2"/>
<path d="M4.35411 146C6.32433 146 7.92142 144.403 7.92142 142.433C7.92142 140.462 6.32433 138.865 4.35411 138.865C2.38389 138.865 0.786621 140.462 0.786621 142.433C0.786621 144.403 2.38389 146 4.35411 146Z" fill="#2185B2"/>
<path d="M55.9946 146C57.9648 146 59.562 144.403 59.562 142.433C59.562 140.462 57.9648 138.865 55.9946 138.865C54.0243 138.865 52.4272 140.462 52.4272 142.433C52.4272 144.403 54.0243 146 55.9946 146Z" fill="#2185B2"/>
<path d="M107.634 146C109.604 146 111.201 144.403 111.201 142.433C111.201 140.462 109.604 138.865 107.634 138.865C105.663 138.865 104.066 140.462 104.066 142.433C104.066 144.403 105.663 146 107.634 146Z" fill="#2185B2"/>
<path d="M159.275 146C161.245 146 162.842 144.403 162.842 142.433C162.842 140.462 161.245 138.865 159.275 138.865C157.304 138.865 155.707 140.462 155.707 142.433C155.707 144.403 157.304 146 159.275 146Z" fill="#2185B2"/>
<path d="M210.911 146C212.882 146 214.479 144.403 214.479 142.433C214.479 140.462 212.882 138.865 210.911 138.865C208.941 138.865 207.344 140.462 207.344 142.433C207.344 144.403 208.941 146 210.911 146Z" fill="#2185B2"/>
<path d="M262.58 146C264.55 146 266.147 144.403 266.147 142.433C266.147 140.462 264.55 138.865 262.58 138.865C260.609 138.865 259.012 140.462 259.012 142.433C259.012 144.403 260.609 146 262.58 146Z" fill="#2185B2"/>
<path d="M317.787 142.433C317.787 144.392 316.178 146 314.219 146C312.26 146 310.652 144.392 310.652 142.433C310.652 140.473 312.26 138.865 314.219 138.865C316.178 138.865 317.787 140.444 317.787 142.433Z" fill="#2185B2"/>
<path d="M365.859 146C367.829 146 369.426 144.403 369.426 142.433C369.426 140.462 367.829 138.865 365.859 138.865C363.889 138.865 362.292 140.462 362.292 142.433C362.292 144.403 363.889 146 365.859 146Z" fill="#CDCFD0"/>
<path d="M417.5 146C419.47 146 421.067 144.403 421.067 142.433C421.067 140.462 419.47 138.865 417.5 138.865C415.529 138.865 413.932 140.462 413.932 142.433C413.932 144.403 415.529 146 417.5 146Z" fill="#CDCFD0"/>
</svg>
