<svg width="81" height="97" viewBox="0 0 81 97" fill="none" xmlns="http://www.w3.org/2000/svg">
<path d="M45.5726 83.9633C46.8426 84.9265 47.1526 86.8204 46.2626 88.1948L41.9626 94.8397C41.0826 96.2142 39.3225 96.5496 38.0525 95.5864L22.3226 83.6602C21.0526 82.697 20.7425 80.8031 21.6325 79.4287L25.9325 72.7839C26.8225 71.4095 28.5726 71.0739 29.8526 72.0371L45.5726 83.9633Z" fill="#EBB544"/>
<path d="M48.8825 27.8389C45.9525 27.8389 43.5825 30.4145 43.5825 33.5746C43.5825 36.7455 45.9525 39.3105 48.8725 39.3105H48.8825C51.8025 39.3105 54.1825 36.7347 54.1725 33.5746C54.1825 30.4145 51.8125 27.8497 48.8825 27.8389Z" fill="#065887"/>
<path d="M14.2825 48.0117L29.8724 64.8837L50.6724 42.3624L26.5825 16.3022C27.1125 24.7437 25.3125 33.1742 20.9625 40.2196C19.0725 43.2931 16.8025 45.9014 14.2825 48.0117Z" fill="#2185B2"/>
<path d="M14.7225 47.4272L3.2925 59.7972C-1.0975 64.5482 -1.0975 72.2536 3.2925 77.0046L8.75246 82.9245C13.1425 87.6755 20.2625 87.6755 24.6525 82.9245L36.0825 70.5546L14.7225 47.4272Z" fill="#F68621"/>
<path d="M67.1424 57.9141C66.1424 58.9855 64.4124 58.8556 63.2724 57.6327L26.6625 18.0121C25.5225 16.7783 25.4024 14.9061 26.4024 13.8347L28.2024 11.8867C29.1924 10.8045 30.9324 10.9344 32.0724 12.1681L68.6724 51.7886C69.8124 53.0224 69.9324 54.8946 68.9424 55.966L67.1424 57.9141Z" fill="#F68621"/>
<path d="M64.8025 57.6436L45.6125 36.8755L24.8025 59.386L35.4925 70.955C37.4525 68.2278 39.8525 65.7712 42.6925 63.7258C49.2025 59.0181 56.9925 57.0809 64.8025 57.6436Z" fill="#2185B2"/>
<path d="M25.2926 58.8665L5.9126 79.8401L8.76257 82.9245C13.1526 87.6755 20.2726 87.6755 24.6626 82.9245L36.0926 70.5546L25.2926 58.8665Z" fill="#EBB544"/>
<path d="M68.6725 51.7779L50.2525 31.843L44.8525 37.6871L63.2725 57.622C64.4125 58.8557 66.1425 58.9748 67.1425 57.9034L68.9425 55.9553C69.9325 54.8839 69.8125 53.0116 68.6725 51.7779Z" fill="#E6C232"/>
<path d="M28.9725 81.8746C28.1525 81.2577 27.0125 81.4851 26.4425 82.3834C25.8825 83.2816 26.0925 84.5044 26.9125 85.1105L38.7025 93.8875C39.5325 94.4935 40.6625 94.277 41.2325 93.3787C41.8025 92.4913 41.5925 91.2685 40.7625 90.6516L28.9725 81.8746Z" fill="#F68621"/>
<path d="M55.7924 26.9512C55.6424 26.9512 55.4924 26.8864 55.3724 26.7673C55.1324 26.5184 55.1324 26.1071 55.3724 25.8582L70.8124 9.1486C71.0424 8.89969 71.4224 8.89969 71.6524 9.1486C71.8824 9.39751 71.8824 9.80872 71.6524 10.0576L56.2124 26.7673C56.1024 26.8756 55.9524 26.9512 55.7924 26.9512Z" fill="#E3FAFD"/>
<path d="M52.1825 23.6507C52.1225 23.6507 52.0524 23.6398 51.9924 23.6182C51.6824 23.51 51.5225 23.142 51.6225 22.8065L58.6724 0.436739C58.7824 0.101247 59.1124 -0.0827267 59.4224 0.0363188C59.7324 0.144542 59.9025 0.512501 59.7925 0.847993L52.7424 23.2178C52.6624 23.4883 52.4325 23.6507 52.1825 23.6507Z" fill="#E3FAFD"/>
<path d="M58.8426 30.8585C58.5926 30.8585 58.3626 30.6962 58.2826 30.4256C58.1726 30.0901 58.3426 29.7221 58.6526 29.6139L79.3226 21.9841C79.6326 21.865 79.9726 22.049 80.0726 22.3845C80.1826 22.72 80.0126 23.088 79.7026 23.207L59.0326 30.8369C58.9726 30.8477 58.9026 30.8585 58.8426 30.8585Z" fill="#E3FAFD"/>
</svg>
