<svg width="104" height="229" viewBox="0 0 104 229" fill="none" xmlns="http://www.w3.org/2000/svg">
<g opacity="0.3">
<path d="M2.39742 0C21.1034 11.0635 29.3946 27.9674 26.3569 48.8481C23.9913 65.1084 5.38088 67.881 2.39742 84.0475C-1.75946 106.572 28.1002 115.11 26.3569 137.924C24.8651 157.445 2.39742 162.889 2.39742 182.462C2.39742 202.035 9.72767 215.661 26.3569 227" stroke="white" stroke-width="3"/>
<path d="M27.3674 0C46.0734 11.0635 54.3645 27.9674 51.3268 48.8481C48.9613 65.1084 30.3509 67.881 27.3674 84.0475C23.2105 106.572 53.0702 115.11 51.3268 137.924C49.8351 157.445 27.3674 162.889 27.3674 182.462C27.3674 202.035 34.6976 215.661 51.3268 227" stroke="white" stroke-width="3"/>
<path d="M52.3375 0C71.0435 11.0635 79.3346 27.9674 76.2969 48.8481C73.9314 65.1084 55.3209 67.881 52.3375 84.0475C48.1806 106.572 78.0403 115.11 76.2969 137.924C74.8052 157.445 52.3375 162.889 52.3375 182.462C52.3375 202.035 59.6677 215.661 76.2969 227" stroke="white" stroke-width="3"/>
<path d="M77.3075 0C96.0134 11.0635 104.305 27.9674 101.267 48.8481C98.9013 65.1084 80.2909 67.881 77.3075 84.0475C73.1506 106.572 103.01 115.11 101.267 137.924C99.7752 157.445 77.3075 162.889 77.3075 182.462C77.3075 202.035 84.6377 215.661 101.267 227" stroke="white" stroke-width="3"/>
</g>
</svg>
