<svg width="89" height="103" viewBox="0 0 89 103" fill="none" xmlns="http://www.w3.org/2000/svg">
<g clip-path="url(#clip0_90_531)">
<path d="M70.9411 102.173C70.2977 102.47 69.5688 102.535 68.882 102.355C68.5145 102.264 68.1691 102.101 67.8661 101.876C67.5631 101.652 67.3085 101.37 67.1172 101.048L59.7131 88.485L52.6703 96.2725C51.8012 97.2682 50.7193 98.0624 49.502 98.598C48.7428 98.9208 47.9037 99.0158 47.09 98.8711C46.657 98.7805 46.2478 98.6029 45.8877 98.3494C45.5276 98.0959 45.2245 97.7721 44.9973 97.398C44.5281 96.5914 44.2602 95.6866 44.2157 94.7581L41.2911 57.1362C36.4625 57.9923 31.4819 57.1526 27.2176 54.7635C22.9532 52.3743 19.6756 48.5873 17.956 44.0625C16.2363 39.5377 16.1838 34.5622 17.8075 30.0031C19.4312 25.4441 22.6281 21.5908 26.8411 19.1148C31.054 16.6389 36.0158 15.6973 40.8614 16.4543C45.707 17.2114 50.1292 19.6189 53.357 23.2573C56.5849 26.8957 58.4138 31.5342 58.5248 36.3642C58.6358 41.1943 57.022 45.9095 53.9646 49.688L85.7577 71.1058C86.5517 71.6089 87.214 72.2894 87.6906 73.092C87.9015 73.4674 88.032 73.8814 88.0739 74.3085C88.1158 74.7355 88.0683 75.1665 87.9343 75.5747C87.662 76.3401 87.161 77.0064 86.4972 77.4864C85.4196 78.2613 84.1788 78.7874 82.8666 79.0257H82.8162L72.4958 81.2023L79.8495 93.8146C80.2242 94.4657 80.321 95.2367 80.1184 95.9581C79.9248 96.6748 79.4701 97.2964 78.841 97.7042C78.8162 97.7256 78.7878 97.7424 78.757 97.7539L71.126 102.099L70.9579 102.173H70.9411ZM40.4506 46.3777L40.291 44.408V44.2922C40.2797 43.9813 40.3431 43.6723 40.4758 43.3901C40.6269 43.0613 40.8613 42.7762 41.1566 42.5625C41.2812 42.4734 41.4205 42.4062 41.5684 42.3639C41.8542 42.2662 42.1585 42.2323 42.4592 42.2646C42.7538 42.2946 43.0395 42.3818 43.2997 42.5211C43.3856 42.5628 43.4673 42.6127 43.5434 42.6701L44.3082 43.1832C44.5359 42.3413 44.6434 41.4723 44.6275 40.6011V39.7239C44.644 38.7768 44.4278 37.8399 43.9972 36.9929C43.576 36.193 42.9239 35.5336 42.1231 35.0977C41.1645 34.5977 40.0891 34.3551 39.0051 34.3943H37.215C36.7519 34.4276 36.2906 34.3082 35.904 34.055C35.7562 33.9305 35.6404 33.7734 35.5659 33.5965C35.4914 33.4197 35.4604 33.228 35.4754 33.037V32.7888C35.4636 32.6205 35.4866 32.4516 35.543 32.2923C35.5993 32.133 35.6878 31.9866 35.8031 31.8619C36.056 31.6365 36.3726 31.4921 36.7108 31.4481C37.1531 31.385 37.6005 31.3628 38.047 31.3819C38.8875 31.3819 39.8203 31.3819 40.8456 31.4481C41.8709 31.5143 42.7954 31.5474 43.619 31.6136V27.5585C43.098 27.4343 42.5181 27.3185 41.8625 27.2026C41.207 27.0867 40.5179 26.9874 39.7783 26.9129C39.4337 26.8716 39.0807 26.8467 38.7194 26.8302V24.7612H35.8283V26.8302C34.5506 26.9407 33.3317 27.4087 32.3154 28.1791C31.7041 28.721 31.2271 29.3937 30.9212 30.1454C30.6152 30.8972 30.4884 31.7081 30.5505 32.5157V33.3433C30.5505 35.4508 31.0856 36.9543 32.1557 37.8536C33.5157 38.8383 35.1863 39.3162 36.8704 39.2025H38.2908C38.6391 39.1917 38.9815 39.2934 39.2656 39.4922C39.3986 39.5862 39.5064 39.7107 39.5796 39.8548C39.6528 39.999 39.6893 40.1586 39.6859 40.3198V40.6342C39.697 40.7847 39.6767 40.9358 39.6261 41.0781C39.5755 41.2205 39.4957 41.3511 39.3917 41.4618C39.1382 41.6782 38.8307 41.8239 38.5009 41.8839C38.0166 41.9784 37.5237 42.0228 37.0301 42.0163C36.4082 42.0163 35.7359 42.0163 35.0131 42.0163C34.2904 42.0163 33.576 41.9749 32.87 41.9418C32.1641 41.9087 31.5086 41.8591 30.9035 41.8094V45.8646C31.3657 45.9887 31.8447 46.0963 32.349 46.1873C32.8532 46.2783 33.3659 46.3528 33.9122 46.419C34.4584 46.4852 35.0131 46.5432 35.593 46.5763H35.8451V48.8273H38.7362V46.6094C39.3174 46.5662 39.8956 46.4888 40.4674 46.3777H40.4506ZM37.5764 0.761378C42.8567 0.755225 48.0767 1.86627 52.8831 4.01931C57.6895 6.17235 61.97 9.31712 65.4349 13.2407C68.8998 17.1644 71.4682 21.7752 72.9663 26.7612C74.4643 31.7472 74.857 36.992 74.1178 42.1404C73.8886 43.8046 73.5376 45.4503 73.0673 47.0646C72.9857 47.3574 72.8321 47.6258 72.6199 47.8461C72.4078 48.0665 72.1437 48.2318 71.8511 48.3276C71.5585 48.4234 71.2464 48.4466 70.9426 48.3952C70.6387 48.3437 70.3524 48.2193 70.109 48.0328L66.9491 45.9059C66.6235 45.6814 66.3788 45.3608 66.2504 44.9904C66.122 44.62 66.1165 44.219 66.2347 43.8453C66.4959 42.754 66.6924 41.6487 66.823 40.5349C66.9591 39.3895 67.0265 38.2372 67.0247 37.0839C67.0186 31.6168 65.4414 26.263 62.4754 21.6415C59.5094 17.0199 55.2758 13.3193 50.2638 10.9674C45.2519 8.61557 39.6664 7.70848 34.1529 8.35103C28.6395 8.99358 23.4233 11.1595 19.1073 14.5985C14.7914 18.0375 11.5519 22.609 9.7634 27.7847C7.9749 32.9603 7.7104 38.5287 9.00048 43.8462C10.2906 49.1637 13.0825 54.013 17.0537 57.8337C21.0248 61.6544 26.0129 64.2903 31.4413 65.4369C31.8363 65.5201 32.1938 65.7257 32.4615 66.0236C32.7292 66.3214 32.893 66.6959 32.9289 67.092L33.223 70.8658C33.2578 71.3559 33.0945 71.8397 32.7686 72.2117C32.4427 72.5837 31.9808 72.8139 31.4834 72.852C31.2742 72.8665 31.0641 72.8469 30.8614 72.7941C27.2437 72.1408 23.7472 70.9521 20.4907 69.2686C13.1873 65.4978 7.37732 59.4264 3.9882 52.0236C0.599085 44.6207 -0.173771 36.3132 1.79301 28.4271C3.75979 20.5411 8.35281 13.5313 14.8389 8.5166C21.3249 3.50193 29.3301 0.771573 37.5764 0.761378ZM69.1342 97.9774C69.2019 98.0021 69.2765 98.0021 69.3443 97.9774H69.4199L76.2609 94.2036C76.325 94.1522 76.3718 94.083 76.3954 94.005C76.4164 93.9546 76.4164 93.8981 76.3954 93.8477L68.4954 79.8699C68.4251 79.7516 68.374 79.6231 68.3442 79.4892C68.2772 79.1568 68.3466 78.8118 68.5372 78.5296C68.7277 78.2474 69.0239 78.0509 69.3611 77.983L80.9505 76.0713C81.8334 75.9195 82.6714 75.5776 83.4045 75.0699C83.6423 74.9093 83.8288 74.6854 83.9424 74.4244C83.9722 74.3414 83.9823 74.2528 83.9721 74.1653C83.962 74.0778 83.9316 73.9938 83.8835 73.9196C83.6242 73.51 83.2699 73.1668 82.8498 72.9182L44.4342 47.5528L45.0393 56.1183L47.6362 93.0036C47.6415 93.4889 47.7655 93.9658 47.9976 94.3939C48.0351 94.4651 48.0875 94.5276 48.1512 94.5775C48.2149 94.6274 48.2886 94.6636 48.3674 94.6836C48.6547 94.7235 48.9475 94.6774 49.2078 94.5512C50.0192 94.1815 50.7369 93.6388 51.3089 92.9622L58.4608 84.1402C58.5556 84.0415 58.663 83.9553 58.7802 83.8836C58.9274 83.799 59.0902 83.7439 59.2591 83.7214C59.4281 83.6989 59.5999 83.7094 59.7646 83.7525C59.9294 83.7956 60.0839 83.8703 60.2193 83.9723C60.3547 84.0743 60.4682 84.2017 60.5535 84.3471L69.0081 97.9029C69.0241 97.9237 69.0443 97.9411 69.0675 97.9539C69.0906 97.9667 69.1162 97.9747 69.1426 97.9774H69.1342Z" fill="#D94428"/>
</g>
<defs>
<clipPath id="clip0_90_531">
<rect width="87.4205" height="101.693" fill="white" transform="translate(0.681885 0.761353)"/>
</clipPath>
</defs>
</svg>
