<svg width="421" height="146" viewBox="0 0 421 146" fill="none" xmlns="http://www.w3.org/2000/svg">
<path d="M3.56749 7.1348C5.53771 7.1348 7.1348 5.53762 7.1348 3.5674C7.1348 1.59718 5.53771 0 3.56749 0C1.59727 0 0 1.59718 0 3.5674C0 5.53762 1.59727 7.1348 3.56749 7.1348Z" fill="#CDCFD0"/>
<path d="M55.2081 7.1348C57.1783 7.1348 58.7755 5.53762 58.7755 3.5674C58.7755 1.59718 57.1783 0 55.2081 0C53.2378 0 51.6407 1.59718 51.6407 3.5674C51.6407 5.53762 53.2378 7.1348 55.2081 7.1348Z" fill="#2185B2"/>
<path d="M106.847 7.1348C108.817 7.1348 110.414 5.53762 110.414 3.5674C110.414 1.59718 108.817 0 106.847 0C104.877 0 103.28 1.59718 103.28 3.5674C103.28 5.53762 104.877 7.1348 106.847 7.1348Z" fill="#2185B2"/>
<path d="M158.488 7.1348C160.458 7.1348 162.055 5.53762 162.055 3.5674C162.055 1.59718 160.458 0 158.488 0C156.518 0 154.92 1.59718 154.92 3.5674C154.92 5.53762 156.518 7.1348 158.488 7.1348Z" fill="#CDCFD0"/>
<path d="M210.125 7.1348C212.095 7.1348 213.692 5.53762 213.692 3.5674C213.692 1.59718 212.095 0 210.125 0C208.154 0 206.557 1.59718 206.557 3.5674C206.557 5.53762 208.154 7.1348 210.125 7.1348Z" fill="#2185B2"/>
<path d="M261.793 7.1348C263.763 7.1348 265.36 5.53762 265.36 3.5674C265.36 1.59718 263.763 0 261.793 0C259.823 0 258.225 1.59718 258.225 3.5674C258.225 5.53762 259.823 7.1348 261.793 7.1348Z" fill="#2185B2"/>
<path d="M317 3.5674C317 5.52654 315.392 7.1348 313.433 7.1348C311.473 7.1348 309.865 5.52654 309.865 3.5674C309.865 1.60826 311.473 0 313.433 0C315.392 0 317 1.60826 317 3.5674Z" fill="#2185B2"/>
<path d="M365.072 7.1348C367.043 7.1348 368.64 5.53762 368.64 3.5674C368.64 1.59718 367.043 0 365.072 0C363.102 0 361.505 1.59718 361.505 3.5674C361.505 5.53762 363.102 7.1348 365.072 7.1348Z" fill="#2185B2"/>
<path d="M416.713 7.1348C418.683 7.1348 420.28 5.53762 420.28 3.5674C420.28 1.59718 418.683 0 416.713 0C414.743 0 413.146 1.59718 413.146 3.5674C413.146 5.53762 414.743 7.1348 416.713 7.1348Z" fill="#2185B2"/>
<path d="M3.56749 41.844C5.53771 41.844 7.1348 40.2468 7.1348 38.2766C7.1348 36.3064 5.53771 34.7092 3.56749 34.7092C1.59727 34.7092 0 36.3064 0 38.2766C0 40.2468 1.59727 41.844 3.56749 41.844Z" fill="#2185B2"/>
<path d="M55.2081 41.844C57.1783 41.844 58.7755 40.2468 58.7755 38.2766C58.7755 36.3064 57.1783 34.7092 55.2081 34.7092C53.2378 34.7092 51.6407 36.3064 51.6407 38.2766C51.6407 40.2468 53.2378 41.844 55.2081 41.844Z" fill="#2185B2"/>
<path d="M106.847 41.844C108.817 41.844 110.414 40.2468 110.414 38.2766C110.414 36.3064 108.817 34.7092 106.847 34.7092C104.877 34.7092 103.28 36.3064 103.28 38.2766C103.28 40.2468 104.877 41.844 106.847 41.844Z" fill="#2185B2"/>
<path d="M158.488 41.844C160.458 41.844 162.055 40.2468 162.055 38.2766C162.055 36.3064 160.458 34.7092 158.488 34.7092C156.518 34.7092 154.92 36.3064 154.92 38.2766C154.92 40.2468 156.518 41.844 158.488 41.844Z" fill="#2185B2"/>
<path d="M210.125 41.844C212.095 41.844 213.692 40.2468 213.692 38.2766C213.692 36.3064 212.095 34.7092 210.125 34.7092C208.154 34.7092 206.557 36.3064 206.557 38.2766C206.557 40.2468 208.154 41.844 210.125 41.844Z" fill="#2185B2"/>
<path d="M261.793 41.844C263.763 41.844 265.36 40.2468 265.36 38.2766C265.36 36.3064 263.763 34.7092 261.793 34.7092C259.823 34.7092 258.225 36.3064 258.225 38.2766C258.225 40.2468 259.823 41.844 261.793 41.844Z" fill="#CDCFD0"/>
<path d="M317 38.2766C317 40.2358 315.392 41.844 313.433 41.844C311.473 41.844 309.865 40.2358 309.865 38.2766C309.865 36.3175 311.473 34.7092 313.433 34.7092C315.392 34.7092 317 36.3175 317 38.2766Z" fill="#2185B2"/>
<path d="M365.072 41.844C367.043 41.844 368.64 40.2468 368.64 38.2766C368.64 36.3064 367.043 34.7092 365.072 34.7092C363.102 34.7092 361.505 36.3064 361.505 38.2766C361.505 40.2468 363.102 41.844 365.072 41.844Z" fill="#2185B2"/>
<path d="M416.713 41.844C418.683 41.844 420.28 40.2468 420.28 38.2766C420.28 36.3064 418.683 34.7092 416.713 34.7092C414.743 34.7092 413.146 36.3064 413.146 38.2766C413.146 40.2468 414.743 41.844 416.713 41.844Z" fill="#CDCFD0"/>
<path d="M3.56749 76.5528C5.53771 76.5528 7.1348 74.9556 7.1348 72.9854C7.1348 71.0151 5.53771 69.418 3.56749 69.418C1.59727 69.418 0 71.0151 0 72.9854C0 74.9556 1.59727 76.5528 3.56749 76.5528Z" fill="#2185B2"/>
<path d="M55.2081 76.5528C57.1783 76.5528 58.7755 74.9556 58.7755 72.9854C58.7755 71.0151 57.1783 69.418 55.2081 69.418C53.2378 69.418 51.6407 71.0151 51.6407 72.9854C51.6407 74.9556 53.2378 76.5528 55.2081 76.5528Z" fill="#CDCFD0"/>
<path d="M106.847 76.5528C108.817 76.5528 110.414 74.9556 110.414 72.9854C110.414 71.0151 108.817 69.418 106.847 69.418C104.877 69.418 103.28 71.0151 103.28 72.9854C103.28 74.9556 104.877 76.5528 106.847 76.5528Z" fill="#2185B2"/>
<path d="M158.488 76.5528C160.458 76.5528 162.055 74.9556 162.055 72.9854C162.055 71.0151 160.458 69.418 158.488 69.418C156.518 69.418 154.92 71.0151 154.92 72.9854C154.92 74.9556 156.518 76.5528 158.488 76.5528Z" fill="#2185B2"/>
<path d="M210.125 76.5528C212.095 76.5528 213.692 74.9556 213.692 72.9854C213.692 71.0151 212.095 69.418 210.125 69.418C208.154 69.418 206.557 71.0151 206.557 72.9854C206.557 74.9556 208.154 76.5528 210.125 76.5528Z" fill="#2185B2"/>
<path d="M261.793 76.5528C263.763 76.5528 265.36 74.9556 265.36 72.9854C265.36 71.0151 263.763 69.418 261.793 69.418C259.823 69.418 258.225 71.0151 258.225 72.9854C258.225 74.9556 259.823 76.5528 261.793 76.5528Z" fill="#2185B2"/>
<path d="M317 72.9854C317 74.9445 315.392 76.5528 313.433 76.5528C311.473 76.5528 309.865 74.9445 309.865 72.9854C309.865 71.0262 311.473 69.418 313.433 69.418C315.392 69.418 317 71.0262 317 72.9854Z" fill="#CDCFD0"/>
<path d="M365.072 76.5528C367.043 76.5528 368.64 74.9556 368.64 72.9854C368.64 71.0151 367.043 69.418 365.072 69.418C363.102 69.418 361.505 71.0151 361.505 72.9854C361.505 74.9556 363.102 76.5528 365.072 76.5528Z" fill="#2185B2"/>
<path d="M416.713 76.5528C418.683 76.5528 420.28 74.9556 420.28 72.9854C420.28 71.0151 418.683 69.418 416.713 69.418C414.743 69.418 413.146 71.0151 413.146 72.9854C413.146 74.9556 414.743 76.5528 416.713 76.5528Z" fill="#2185B2"/>
<path d="M3.56749 111.262C5.53771 111.262 7.1348 109.665 7.1348 107.694C7.1348 105.724 5.53771 104.127 3.56749 104.127C1.59727 104.127 0 105.724 0 107.694C0 109.665 1.59727 111.262 3.56749 111.262Z" fill="#2185B2"/>
<path d="M55.2081 111.262C57.1783 111.262 58.7755 109.665 58.7755 107.694C58.7755 105.724 57.1783 104.127 55.2081 104.127C53.2378 104.127 51.6407 105.724 51.6407 107.694C51.6407 109.665 53.2378 111.262 55.2081 111.262Z" fill="#2185B2"/>
<path d="M106.847 111.262C108.817 111.262 110.414 109.665 110.414 107.694C110.414 105.724 108.817 104.127 106.847 104.127C104.877 104.127 103.28 105.724 103.28 107.694C103.28 109.665 104.877 111.262 106.847 111.262Z" fill="#CDCFD0"/>
<path d="M158.488 111.262C160.458 111.262 162.055 109.665 162.055 107.694C162.055 105.724 160.458 104.127 158.488 104.127C156.518 104.127 154.92 105.724 154.92 107.694C154.92 109.665 156.518 111.262 158.488 111.262Z" fill="#2185B2"/>
<path d="M210.125 111.262C212.095 111.262 213.692 109.665 213.692 107.694C213.692 105.724 212.095 104.127 210.125 104.127C208.154 104.127 206.557 105.724 206.557 107.694C206.557 109.665 208.154 111.262 210.125 111.262Z" fill="#CDCFD0"/>
<path d="M261.793 111.262C263.763 111.262 265.36 109.665 265.36 107.694C265.36 105.724 263.763 104.127 261.793 104.127C259.823 104.127 258.225 105.724 258.225 107.694C258.225 109.665 259.823 111.262 261.793 111.262Z" fill="#2185B2"/>
<path d="M317 107.694C317 109.653 315.392 111.262 313.433 111.262C311.473 111.262 309.865 109.653 309.865 107.694C309.865 105.735 311.473 104.127 313.433 104.127C315.392 104.127 317 105.735 317 107.694Z" fill="#2185B2"/>
<path d="M365.072 111.262C367.043 111.262 368.64 109.665 368.64 107.694C368.64 105.724 367.043 104.127 365.072 104.127C363.102 104.127 361.505 105.724 361.505 107.694C361.505 109.665 363.102 111.262 365.072 111.262Z" fill="#2185B2"/>
<path d="M416.713 111.262C418.683 111.262 420.28 109.665 420.28 107.694C420.28 105.724 418.683 104.127 416.713 104.127C414.743 104.127 413.146 105.724 413.146 107.694C413.146 109.665 414.743 111.262 416.713 111.262Z" fill="#2185B2"/>
<path d="M3.56749 146C5.53771 146 7.1348 144.403 7.1348 142.433C7.1348 140.462 5.53771 138.865 3.56749 138.865C1.59727 138.865 0 140.462 0 142.433C0 144.403 1.59727 146 3.56749 146Z" fill="#2185B2"/>
<path d="M55.2081 146C57.1783 146 58.7755 144.403 58.7755 142.433C58.7755 140.462 57.1783 138.865 55.2081 138.865C53.2378 138.865 51.6407 140.462 51.6407 142.433C51.6407 144.403 53.2378 146 55.2081 146Z" fill="#2185B2"/>
<path d="M106.847 146C108.817 146 110.414 144.403 110.414 142.433C110.414 140.462 108.817 138.865 106.847 138.865C104.877 138.865 103.28 140.462 103.28 142.433C103.28 144.403 104.877 146 106.847 146Z" fill="#2185B2"/>
<path d="M158.488 146C160.458 146 162.055 144.403 162.055 142.433C162.055 140.462 160.458 138.865 158.488 138.865C156.518 138.865 154.92 140.462 154.92 142.433C154.92 144.403 156.518 146 158.488 146Z" fill="#2185B2"/>
<path d="M210.125 146C212.095 146 213.692 144.403 213.692 142.433C213.692 140.462 212.095 138.865 210.125 138.865C208.154 138.865 206.557 140.462 206.557 142.433C206.557 144.403 208.154 146 210.125 146Z" fill="#2185B2"/>
<path d="M261.793 146C263.763 146 265.36 144.403 265.36 142.433C265.36 140.462 263.763 138.865 261.793 138.865C259.823 138.865 258.225 140.462 258.225 142.433C258.225 144.403 259.823 146 261.793 146Z" fill="#2185B2"/>
<path d="M317 142.433C317 144.392 315.392 146 313.433 146C311.473 146 309.865 144.392 309.865 142.433C309.865 140.473 311.473 138.865 313.433 138.865C315.392 138.865 317 140.444 317 142.433Z" fill="#2185B2"/>
<path d="M365.072 146C367.043 146 368.64 144.403 368.64 142.433C368.64 140.462 367.043 138.865 365.072 138.865C363.102 138.865 361.505 140.462 361.505 142.433C361.505 144.403 363.102 146 365.072 146Z" fill="#CDCFD0"/>
<path d="M416.713 146C418.683 146 420.28 144.403 420.28 142.433C420.28 140.462 418.683 138.865 416.713 138.865C414.743 138.865 413.146 140.462 413.146 142.433C413.146 144.403 414.743 146 416.713 146Z" fill="#CDCFD0"/>
</svg>
