<svg width="657" height="657" viewBox="0 0 657 657" fill="none" xmlns="http://www.w3.org/2000/svg">
<mask id="mask0_90_660" style="mask-type:alpha" maskUnits="userSpaceOnUse" x="0" y="0" width="657" height="657">
<circle cx="328.5" cy="328.5" r="328.5" fill="#C4C4C4"/>
</mask>
<g mask="url(#mask0_90_660)">
<path d="M604.109 759C604.109 759 691.037 678.015 617.387 629.645C581.106 605.816 574.469 575.18 597.468 554.753C632.548 523.61 607.656 496.883 544.362 490.075C447.774 479.686 491.252 432.205 477.979 404.975C464.701 377.746 425.705 366.151 351.844 384.553C242.539 411.783 179.24 394.767 132.771 343.704C86.3019 292.641 0 296.047 0 296.047V758.995H604.109V759Z" fill="#2185B2"/>
<ellipse cx="129.5" cy="565" rx="172.5" ry="158" fill="#D94428"/>
</g>
</svg>
