<svg width="56" height="48" viewBox="0 0 56 48" fill="none" xmlns="http://www.w3.org/2000/svg">
<path d="M47.2692 0H8.70919C3.89736 0 0 4.13934 0 9.24991V31.866C0 36.9765 3.89736 41.1159 8.70919 41.1159H22.731L28.2831 47.0127L33.8351 41.1159H47.2908C52.1026 41.1159 56 36.9765 56 31.866V9.24991C55.9782 4.13934 52.081 0 47.2692 0Z" fill="#D94428"/>
<path d="M28.2624 32.6519L24.7351 30.2238C24.561 30.1081 22.8844 28.9519 21.1643 27.4488C18.6822 25.2751 15.8301 22.2458 15.8301 18.1296C15.8301 14.314 18.7476 11.2153 22.3402 11.2153C24.9747 11.2153 27.239 12.8803 28.2624 15.2621C29.2857 12.8803 31.5501 11.2153 34.1847 11.2153C37.7772 11.2153 40.6948 14.314 40.6948 18.1296C40.6948 22.2689 37.8425 25.2751 35.3604 27.4488C33.6403 28.9519 31.9855 30.1081 31.7896 30.2238L28.2624 32.6519Z" fill="#F8F7F3"/>
</svg>
