<svg width="91" height="91" viewBox="0 0 91 91" fill="none" xmlns="http://www.w3.org/2000/svg">
<g clip-path="url(#clip0_90_546)">
<path d="M45.5 73.5681C42.6461 73.5681 39.7714 72.8538 37.3322 70.9338L0.897705 44.6115V81.7394C0.897705 86.3565 4.6436 90.1024 9.26063 90.1024H81.7393C86.3564 90.1024 90.1022 86.3565 90.1022 81.8962V44.6115L53.6713 70.9373C51.2321 72.6796 48.3573 73.5681 45.5 73.5681ZM86.8965 29.2969C85.3633 28.0773 83.8997 26.9448 81.7393 25.3071V17.6201C81.7393 13.0031 77.9934 9.25721 73.3764 9.25721L59.8738 9.25749C59.3293 8.86548 58.8502 8.51702 58.2839 8.12501C55.3613 5.97302 49.5595 0.832743 45.5 0.898078C41.4579 0.832743 35.6387 5.97302 32.7117 8.12821C32.1454 8.52023 31.6663 8.86868 31.1218 9.26069H17.6236C13.0065 9.26069 9.26063 13.0066 9.26063 17.6236V25.3106C7.10544 26.9448 5.64541 28.0773 4.10001 29.2969C2.07374 30.8649 0.897705 33.3041 0.897705 35.8827V37.733L17.6236 49.8192V17.6236H73.3764V49.8035L90.1022 37.7173V35.8827C90.1022 33.3041 88.9349 30.8649 86.8965 29.2969ZM31.5618 45.3433H59.4382C60.9777 45.3433 62.2258 44.0951 62.2258 42.7124C62.2258 41.1726 60.9777 39.9248 59.4382 39.9248H31.5618C30.0223 39.9248 28.7741 41.1726 28.7741 42.7124C28.7741 44.2456 30.0286 45.3433 31.5618 45.3433ZM31.5618 34.1927H59.4382C60.9777 34.1927 62.2258 32.9445 62.2258 31.405C62.2258 29.8652 60.9777 28.7742 59.4382 28.7742H31.5618C30.0223 28.7742 28.7741 30.022 28.7741 31.405C28.7741 33.095 30.0286 34.1927 31.5618 34.1927Z" fill="#D94428"/>
</g>
<defs>
<clipPath id="clip0_90_546">
<rect width="89.2045" height="89.2045" fill="white" transform="translate(0.897705 0.897705)"/>
</clipPath>
</defs>
</svg>
