<svg width="96" height="91" viewBox="0 0 96 91" fill="none" xmlns="http://www.w3.org/2000/svg">
<path d="M92.9744 11.5671C92.892 10.6809 92.315 9.89767 91.4906 9.5267L72.6739 1.11798C71.8495 0.747008 70.9015 0.850067 70.1801 1.38592L46.582 18.4919C55.6091 22.8406 62.5339 31.0226 65.0277 41.3068C66.1406 45.8616 66.2643 50.54 65.4812 55.0947L94.0873 34.3614C94.8086 33.8255 95.2002 32.9599 95.1178 32.0531L92.9744 11.5671ZM81.7627 23.3146C79.8873 24.6748 77.2699 24.2626 75.9097 22.3872C74.5494 20.5117 74.9615 17.8943 76.837 16.534C78.7125 15.1738 81.33 15.5859 82.6902 17.4614C84.071 19.3369 83.6382 21.9543 81.7627 23.3146Z" fill="#D94428"/>
<path d="M15.8537 43.8831L35.2062 70.552C35.7421 70.4696 36.2778 70.3871 36.7931 70.2635C48.3139 67.4606 55.4036 55.8162 52.6213 44.2954C50.4161 35.2065 42.6875 28.6938 33.5369 27.9313L16.4307 40.3383C15.2972 41.1833 15.0499 42.7496 15.8537 43.8831Z" fill="#D94428"/>
<path d="M86.3195 77.7444L68.3891 66.1206C66.8021 65.1107 64.9884 64.8841 63.2984 65.2962C62.7213 65.4405 62.1649 65.6466 61.6497 65.9351L58.7025 64.0184C62.2061 57.5676 63.4428 49.839 61.5879 42.1516C57.6102 25.6845 40.937 15.5445 24.4699 19.5221C8.00275 23.5204 -2.13716 40.173 1.8405 56.6402C5.83878 73.1073 22.4913 83.2679 38.979 79.2696C45.4917 77.6827 51.015 74.0966 55.0545 69.3357L58.1255 71.3349C57.9812 73.6844 58.9705 76.0339 61.0933 77.3941L79.0031 89.0179C80.6106 90.069 82.5067 90.3369 84.2379 89.9041C85.8455 89.5125 87.3088 88.5233 88.2774 87.0394C90.3178 83.9067 89.4315 79.7436 86.3195 77.7444ZM37.6395 73.7256C24.1814 77.0025 10.6614 68.738 7.38451 55.3005C4.12818 41.8631 12.3721 28.3225 25.8096 25.0661C39.2471 21.7892 52.7876 30.0537 56.0645 43.4912C59.3208 56.9287 51.0564 70.4693 37.6395 73.7256Z" fill="#D94428"/>
</svg>
