<svg width="93" height="309" viewBox="0 0 93 309" fill="none" xmlns="http://www.w3.org/2000/svg">
<path d="M88.4552 306.165C88.4552 304.717 89.4726 303.544 90.7276 303.544C91.9826 303.544 93 304.717 93 306.165C93 307.613 91.9826 308.786 90.7276 308.786C89.4726 308.786 88.4552 307.613 88.4552 306.165Z" fill="#CDCFD0"/>
<path d="M88.4552 268.225C88.4552 266.777 89.4726 265.604 90.7276 265.604C91.9826 265.604 93 266.777 93 268.225C93 269.672 91.9826 270.846 90.7276 270.846C89.4726 270.846 88.4552 269.672 88.4552 268.225Z" fill="#F68621"/>
<path d="M88.4552 230.285C88.4552 228.838 89.4726 227.664 90.7276 227.664C91.9826 227.664 93 228.838 93 230.285C93 231.733 91.9826 232.907 90.7276 232.907C89.4726 232.907 88.4552 231.733 88.4552 230.285Z" fill="#F68621"/>
<path d="M88.4552 192.345C88.4552 190.897 89.4726 189.724 90.7276 189.724C91.9826 189.724 93 190.897 93 192.345C93 193.792 91.9826 194.966 90.7276 194.966C89.4726 194.966 88.4552 193.792 88.4552 192.345Z" fill="#CDCFD0"/>
<path d="M88.4552 154.403C88.4552 152.955 89.4726 151.782 90.7276 151.782C91.9826 151.782 93 152.955 93 154.403C93 155.85 91.9826 157.024 90.7276 157.024C89.4726 157.024 88.4552 155.85 88.4552 154.403Z" fill="#F68621"/>
<path d="M88.4552 116.443C88.4552 114.995 89.4726 113.822 90.7276 113.822C91.9826 113.822 93 114.995 93 116.443C93 117.89 91.9826 119.064 90.7276 119.064C89.4726 119.064 88.4552 117.89 88.4552 116.443Z" fill="#F68621"/>
<path d="M90.7276 75.8796C89.4796 75.8796 88.4552 77.0613 88.4552 78.5007C88.4552 79.9402 89.4796 81.1217 90.7276 81.1217C91.9756 81.1217 93 79.9402 93 78.5007C93 77.0613 91.9756 75.8796 90.7276 75.8796Z" fill="#F68621"/>
<path d="M88.4552 40.5615C88.4552 39.1139 89.4726 37.9404 90.7276 37.9404C91.9826 37.9404 93 39.1139 93 40.5615C93 42.009 91.9826 43.1826 90.7276 43.1826C89.4726 43.1826 88.4552 42.009 88.4552 40.5615Z" fill="#F68621"/>
<path d="M88.4552 2.62097C88.4552 1.17341 89.4726 0 90.7276 0C91.9826 0 93 1.17341 93 2.62097C93 4.06853 91.9826 5.24194 90.7276 5.24194C89.4726 5.24194 88.4552 4.06853 88.4552 2.62097Z" fill="#F68621"/>
<path d="M66.3458 306.165C66.3458 304.717 67.3632 303.544 68.6182 303.544C69.8732 303.544 70.8906 304.717 70.8906 306.165C70.8906 307.613 69.8732 308.786 68.6182 308.786C67.3632 308.786 66.3458 307.613 66.3458 306.165Z" fill="#F68621"/>
<path d="M66.3458 268.225C66.3458 266.777 67.3632 265.604 68.6182 265.604C69.8732 265.604 70.8906 266.777 70.8906 268.225C70.8906 269.672 69.8732 270.846 68.6182 270.846C67.3632 270.846 66.3458 269.672 66.3458 268.225Z" fill="#F68621"/>
<path d="M66.3458 230.285C66.3458 228.838 67.3632 227.664 68.6182 227.664C69.8732 227.664 70.8906 228.838 70.8906 230.285C70.8906 231.733 69.8732 232.907 68.6182 232.907C67.3632 232.907 66.3458 231.733 66.3458 230.285Z" fill="#F68621"/>
<path d="M66.3458 192.345C66.3458 190.897 67.3632 189.724 68.6182 189.724C69.8732 189.724 70.8906 190.897 70.8906 192.345C70.8906 193.792 69.8732 194.966 68.6182 194.966C67.3632 194.966 66.3458 193.792 66.3458 192.345Z" fill="#F68621"/>
<path d="M66.3458 154.403C66.3458 152.955 67.3632 151.782 68.6182 151.782C69.8732 151.782 70.8906 152.955 70.8906 154.403C70.8906 155.85 69.8732 157.024 68.6182 157.024C67.3632 157.024 66.3458 155.85 66.3458 154.403Z" fill="#F68621"/>
<path d="M66.3458 116.443C66.3458 114.995 67.3632 113.822 68.6182 113.822C69.8732 113.822 70.8906 114.995 70.8906 116.443C70.8906 117.89 69.8732 119.064 68.6182 119.064C67.3632 119.064 66.3458 117.89 66.3458 116.443Z" fill="#CDCFD0"/>
<path d="M68.6182 75.8796C67.3702 75.8796 66.3458 77.0613 66.3458 78.5007C66.3458 79.9402 67.3702 81.1217 68.6182 81.1217C69.8662 81.1217 70.8906 79.9402 70.8906 78.5007C70.8906 77.0613 69.8662 75.8796 68.6182 75.8796Z" fill="#F68621"/>
<path d="M66.3458 40.5615C66.3458 39.1139 67.3632 37.9404 68.6182 37.9404C69.8732 37.9404 70.8906 39.1139 70.8906 40.5615C70.8906 42.009 69.8732 43.1826 68.6182 43.1826C67.3632 43.1826 66.3458 42.009 66.3458 40.5615Z" fill="#F68621"/>
<path d="M66.3458 2.62097C66.3458 1.17341 67.3632 0 68.6182 0C69.8732 0 70.8906 1.17341 70.8906 2.62097C70.8906 4.06853 69.8732 5.24194 68.6182 5.24194C67.3632 5.24194 66.3458 4.06853 66.3458 2.62097Z" fill="#CDCFD0"/>
<path d="M44.2364 306.165C44.2364 304.717 45.2538 303.544 46.5088 303.544C47.7639 303.544 48.7812 304.717 48.7812 306.165C48.7812 307.613 47.7639 308.786 46.5088 308.786C45.2538 308.786 44.2364 307.613 44.2364 306.165Z" fill="#F68621"/>
<path d="M44.2365 268.225C44.2365 266.777 45.2538 265.604 46.5089 265.604C47.7639 265.604 48.7812 266.777 48.7812 268.225C48.7812 269.672 47.7639 270.846 46.5089 270.846C45.2538 270.846 44.2365 269.672 44.2365 268.225Z" fill="#CDCFD0"/>
<path d="M44.2365 230.285C44.2365 228.838 45.2538 227.664 46.5089 227.664C47.7639 227.664 48.7812 228.838 48.7812 230.285C48.7812 231.733 47.7639 232.907 46.5089 232.907C45.2538 232.907 44.2365 231.733 44.2365 230.285Z" fill="#F68621"/>
<path d="M44.2365 192.345C44.2365 190.897 45.2538 189.724 46.5089 189.724C47.7639 189.724 48.7812 190.897 48.7812 192.345C48.7812 193.792 47.7639 194.966 46.5089 194.966C45.2538 194.966 44.2365 193.792 44.2365 192.345Z" fill="#F68621"/>
<path d="M44.2365 154.403C44.2365 152.955 45.2538 151.782 46.5089 151.782C47.7639 151.782 48.7812 152.955 48.7812 154.403C48.7812 155.85 47.7639 157.024 46.5089 157.024C45.2538 157.024 44.2365 155.85 44.2365 154.403Z" fill="#F68621"/>
<path d="M44.2365 116.443C44.2365 114.995 45.2538 113.822 46.5089 113.822C47.7639 113.822 48.7812 114.995 48.7812 116.443C48.7812 117.89 47.7639 119.064 46.5089 119.064C45.2538 119.064 44.2365 117.89 44.2365 116.443Z" fill="#F68621"/>
<path d="M46.5089 75.8796C45.2609 75.8796 44.2365 77.0613 44.2365 78.5007C44.2365 79.9402 45.2609 81.1217 46.5089 81.1217C47.7568 81.1217 48.7812 79.9402 48.7812 78.5007C48.7812 77.0613 47.7568 75.8796 46.5089 75.8796Z" fill="#CDCFD0"/>
<path d="M44.2365 40.5615C44.2365 39.1139 45.2538 37.9404 46.5089 37.9404C47.7639 37.9404 48.7812 39.1139 48.7812 40.5615C48.7812 42.009 47.7639 43.1826 46.5089 43.1826C45.2538 43.1826 44.2365 42.009 44.2365 40.5615Z" fill="#F68621"/>
<path d="M44.2365 2.62097C44.2365 1.17341 45.2538 0 46.5089 0C47.7639 0 48.7812 1.17341 48.7812 2.62097C48.7812 4.06853 47.7639 5.24194 46.5089 5.24194C45.2538 5.24194 44.2365 4.06853 44.2365 2.62097Z" fill="#F68621"/>
<path d="M22.1285 306.165C22.1285 304.717 23.1459 303.544 24.4009 303.544C25.656 303.544 26.6733 304.717 26.6733 306.165C26.6733 307.613 25.656 308.786 24.4009 308.786C23.1459 308.786 22.1285 307.613 22.1285 306.165Z" fill="#F68621"/>
<path d="M22.1285 268.225C22.1285 266.777 23.1459 265.604 24.4009 265.604C25.656 265.604 26.6733 266.777 26.6733 268.225C26.6733 269.672 25.656 270.846 24.4009 270.846C23.1459 270.846 22.1285 269.672 22.1285 268.225Z" fill="#F68621"/>
<path d="M22.1285 230.285C22.1285 228.838 23.1459 227.664 24.4009 227.664C25.656 227.664 26.6733 228.838 26.6733 230.285C26.6733 231.733 25.656 232.907 24.4009 232.907C23.1459 232.907 22.1285 231.733 22.1285 230.285Z" fill="#CDCFD0"/>
<path d="M22.1285 192.345C22.1285 190.897 23.1459 189.724 24.4009 189.724C25.656 189.724 26.6733 190.897 26.6733 192.345C26.6733 193.792 25.656 194.966 24.4009 194.966C23.1459 194.966 22.1285 193.792 22.1285 192.345Z" fill="#F68621"/>
<path d="M22.1285 154.403C22.1285 152.955 23.1459 151.782 24.4009 151.782C25.656 151.782 26.6733 152.955 26.6733 154.403C26.6733 155.85 25.656 157.024 24.4009 157.024C23.1459 157.024 22.1285 155.85 22.1285 154.403Z" fill="#CDCFD0"/>
<path d="M22.1285 116.443C22.1285 114.995 23.1459 113.822 24.4009 113.822C25.656 113.822 26.6733 114.995 26.6733 116.443C26.6733 117.89 25.656 119.064 24.4009 119.064C23.1459 119.064 22.1285 117.89 22.1285 116.443Z" fill="#F68621"/>
<path d="M24.4009 75.8796C23.153 75.8796 22.1285 77.0613 22.1285 78.5007C22.1285 79.9402 23.153 81.1217 24.4009 81.1217C25.6489 81.1217 26.6733 79.9402 26.6733 78.5007C26.6733 77.0613 25.6489 75.8796 24.4009 75.8796Z" fill="#F68621"/>
<path d="M22.1285 40.5615C22.1285 39.1139 23.1459 37.9404 24.4009 37.9404C25.656 37.9404 26.6733 39.1139 26.6733 40.5615C26.6733 42.009 25.656 43.1826 24.4009 43.1826C23.1459 43.1826 22.1285 42.009 22.1285 40.5615Z" fill="#F68621"/>
<path d="M22.1285 2.62097C22.1285 1.17341 23.1459 0 24.4009 0C25.656 0 26.6733 1.17341 26.6733 2.62097C26.6733 4.06853 25.656 5.24194 24.4009 5.24194C23.1459 5.24194 22.1285 4.06853 22.1285 2.62097Z" fill="#F68621"/>
<path d="M-0.000427246 306.165C-0.000427246 304.717 1.01698 303.544 2.272 303.544C3.52703 303.544 4.54443 304.717 4.54443 306.165C4.54443 307.613 3.52703 308.786 2.272 308.786C1.01698 308.786 -0.000427246 307.613 -0.000427246 306.165Z" fill="#F68621"/>
<path d="M-0.000152588 268.225C-0.000152588 266.777 1.01724 265.604 2.27226 265.604C3.52728 265.604 4.54468 266.777 4.54468 268.225C4.54468 269.672 3.52728 270.846 2.27226 270.846C1.01724 270.846 -0.000152588 269.672 -0.000152588 268.225Z" fill="#F68621"/>
<path d="M-0.000152588 230.285C-0.000152588 228.838 1.01724 227.664 2.27226 227.664C3.52728 227.664 4.54468 228.838 4.54468 230.285C4.54468 231.733 3.52728 232.907 2.27226 232.907C1.01724 232.907 -0.000152588 231.733 -0.000152588 230.285Z" fill="#F68621"/>
<path d="M-0.000152588 192.345C-0.000152588 190.897 1.01724 189.724 2.27226 189.724C3.52728 189.724 4.54468 190.897 4.54468 192.345C4.54468 193.792 3.52728 194.966 2.27226 194.966C1.01724 194.966 -0.000152588 193.792 -0.000152588 192.345Z" fill="#F68621"/>
<path d="M-0.000152588 154.403C-0.000152588 152.955 1.01724 151.782 2.27226 151.782C3.52728 151.782 4.54468 152.955 4.54468 154.403C4.54468 155.85 3.52728 157.024 2.27226 157.024C1.01724 157.024 -0.000152588 155.85 -0.000152588 154.403Z" fill="#F68621"/>
<path d="M-0.000152588 116.443C-0.000152588 114.995 1.01724 113.822 2.27226 113.822C3.52728 113.822 4.54468 114.995 4.54468 116.443C4.54468 117.89 3.52728 119.064 2.27226 119.064C1.01724 119.064 -0.000152588 117.89 -0.000152588 116.443Z" fill="#F68621"/>
<path d="M2.27226 75.8796C1.0243 75.8796 -0.000152588 77.0613 -0.000152588 78.5007C-0.000152588 79.9402 1.0243 81.1217 2.27226 81.1217C3.52023 81.1217 4.54468 79.9402 4.54468 78.5007C4.54468 77.0613 3.53885 75.8796 2.27226 75.8796Z" fill="#F68621"/>
<path d="M-0.000152588 40.5615C-0.000152588 39.1139 1.01724 37.9404 2.27226 37.9404C3.52728 37.9404 4.54468 39.1139 4.54468 40.5615C4.54468 42.009 3.52728 43.1826 2.27226 43.1826C1.01724 43.1826 -0.000152588 42.009 -0.000152588 40.5615Z" fill="#CDCFD0"/>
<path d="M-0.000152588 2.62097C-0.000152588 1.17341 1.01724 0 2.27226 0C3.52728 0 4.54468 1.17341 4.54468 2.62097C4.54468 4.06853 3.52728 5.24194 2.27226 5.24194C1.01724 5.24194 -0.000152588 4.06853 -0.000152588 2.62097Z" fill="#CDCFD0"/>
</svg>
