<svg width="101" height="91" viewBox="0 0 101 91" fill="none" xmlns="http://www.w3.org/2000/svg">
<path d="M97.4948 0.897705H3.52371C1.76263 0.897705 0.330322 2.33009 0.330322 4.09116V86.9088C0.330322 88.6699 1.76263 90.1022 3.52371 90.1022H97.4948C99.2559 90.1022 100.688 88.6699 100.688 86.9088V4.09116C100.688 2.33009 99.2559 0.897705 97.4948 0.897705ZM77.6064 7.80114C79.9545 7.80114 81.8565 9.7031 81.8565 12.0512C81.8565 14.3993 79.9545 16.3013 77.6064 16.3013C75.2583 16.3013 73.3563 14.3993 73.3563 12.0512C73.3563 9.7031 75.2583 7.80114 77.6064 7.80114ZM65.138 7.80114C67.4861 7.80114 69.388 9.7031 69.388 12.0512C69.388 14.3993 67.4861 16.3013 65.138 16.3013C62.7899 16.3013 60.8879 14.3993 60.8879 12.0512C60.8879 9.7031 62.7899 7.80114 65.138 7.80114ZM94.325 83.7154H6.7406V23.2047H94.325V83.7154ZM90.0749 16.3013C87.7268 16.3013 85.8248 14.3993 85.8248 12.0512C85.8248 9.7031 87.7268 7.80114 90.0749 7.80114C92.423 7.80114 94.325 9.7031 94.325 12.0512C94.325 14.3993 92.423 16.3013 90.0749 16.3013Z" fill="#D94428"/>
<path d="M85.1663 32.926H15.8972V48.1887H85.1663V32.926Z" fill="#D94428"/>
<path d="M35.692 52.298H15.8975V54.9278H35.692V52.298Z" fill="#D94428"/>
<path d="M35.692 59.0602H15.8975V61.69H35.692V59.0602Z" fill="#D94428"/>
<path d="M35.692 65.7998H15.8975V68.4297H35.692V65.7998Z" fill="#D94428"/>
<path d="M35.692 72.562H15.8975V75.1919H35.692V72.562Z" fill="#D94428"/>
<path d="M60.5821 52.298H40.7642V54.9278H60.5821V52.298Z" fill="#D94428"/>
<path d="M60.5821 59.0602H40.7642V61.69H60.5821V59.0602Z" fill="#D94428"/>
<path d="M60.5821 65.7998H40.7642V68.4297H60.5821V65.7998Z" fill="#D94428"/>
<path d="M60.5821 72.562H40.7642V75.1919H60.5821V72.562Z" fill="#D94428"/>
<path d="M85.4496 52.298H65.655V54.9278H85.4496V52.298Z" fill="#D94428"/>
<path d="M85.4496 54.1531H65.655V73.0553H85.4496V54.1531Z" fill="#D94428"/>
<path d="M85.4496 72.562H65.655V75.1919H85.4496V72.562Z" fill="#D94428"/>
</svg>
